<?xml version="1.0" encoding="UTF-8"?>
<svg width="154px" height="41px" viewBox="0 0 154 41" version="1.1" xmlns="http://www.w3.org/2000/svg" xmlns:xlink="http://www.w3.org/1999/xlink">
    <!-- Generator: Sketch 43.2 (39069) - http://www.bohemiancoding.com/sketch -->
    <title>Group</title>
    <desc>Created with Sketch.</desc>
    <defs>
        <polygon id="path-1" points="0.34534246 11.6276137 20.8749164 11.6276137 20.8749164 0.267063032 0.34534246 0.267063032 0.34534246 11.6276137"></polygon>
        <polygon id="path-3" points="20.8750095 0.00418594094 0.345435579 0.00418594094 0.345435579 11.3645041 20.8750095 11.3645041 20.8750095 0.00418594094"></polygon>
        <polygon id="path-5" points="0.34534246 11.6276137 20.8749164 11.6276137 20.8749164 0.267063032 0.34534246 0.267063032 0.34534246 11.6276137"></polygon>
    </defs>
    <g id="Page-1" stroke="none" stroke-width="1" fill="none" fill-rule="evenodd">
        <g id="HomePage" transform="translate(-94.000000, -18.000000)">
            <g id="Group" transform="translate(94.000000, 18.000000)">
                <g id="Group-16">
                    <g id="Page-1">
                        <g id="Group-3" transform="translate(11.639836, 28.832529)">
                            <mask id="mask-2" fill="white">
                                <use xlink:href="#path-1"></use>
                            </mask>
                            <g id="Clip-2"></g>
                            <path d="M18.3140712,6.44411654 C18.2079159,6.26040025 18.0114354,6.14691474 17.7991248,6.14691474 L10.7719231,6.14691474 C11.7617748,6.09249751 12.6640949,5.54925539 13.1636766,4.68509114 C13.6902628,3.77348623 13.6902628,2.65072384 13.1636766,1.73958403 C12.6370904,0.828444222 11.6635346,0.267063032 10.6103622,0.267063032 C9.55672427,0.267063032 8.5831684,0.828444222 8.05658223,1.73958403 C7.52999605,2.65072384 7.52999605,3.77348623 8.05658223,4.68509114 C8.55616398,5.54925539 9.45848406,6.09249751 10.4488013,6.14691474 L3.421134,6.14691474 C3.20882339,6.14691474 3.01234296,6.26040025 2.90618766,6.44411654 L0.425971433,10.7365664 C0.196899463,11.1323704 0.483239426,11.6277067 0.940917771,11.6277067 L20.2793411,11.6277067 C20.7370194,11.6277067 21.0233594,11.1323704 20.7942874,10.7365664 L18.3140712,6.44411654 Z" id="Fill-1" fill="#61C46E" mask="url(#mask-2)"></path>
                        </g>
                        <g id="Group-6" transform="translate(11.639836, 0.461151)">
                            <mask id="mask-4" fill="white">
                                <use xlink:href="#path-3"></use>
                            </mask>
                            <g id="Clip-5"></g>
                            <path d="M2.90628078,5.18745056 C3.01243608,5.37116686 3.20891651,5.48465237 3.42122711,5.48465237 L10.4484288,5.48465237 C9.45857718,5.5390696 8.5562571,6.08231172 8.05667535,6.94647597 C7.53008917,7.85808088 7.53008917,8.98084326 8.05667535,9.89198308 C8.58326152,10.8031229 9.55681739,11.3645041 10.6099897,11.3645041 C11.6636277,11.3645041 12.636718,10.8031229 13.1637697,9.89198308 C13.6903559,8.98084326 13.6903559,7.85808088 13.1637697,6.94647597 C12.664188,6.08231172 11.7618679,5.5390696 10.7715507,5.48465237 L17.799218,5.48465237 C18.0115286,5.48465237 18.208009,5.37116686 18.3141643,5.18745056 L20.7943805,0.895000683 C21.0234525,0.499196712 20.7371125,0.00386036776 20.2794342,0.00386036776 L0.94101089,0.00386036776 C0.483332544,0.00386036776 0.196992582,0.499196712 0.426064552,0.895000683 L2.90628078,5.18745056 Z" id="Fill-4" fill="#FA6FA8" mask="url(#mask-4)"></path>
                        </g>
                        <path d="M43.9055074,21.2508594 L38.92552,21.2415573 C38.7122783,21.2410922 38.5157978,21.3545777 38.4091769,21.5387591 L34.8981368,27.6116292 C35.3432442,26.7311863 35.325086,25.6837708 34.8306258,24.821467 C34.3068332,23.9084668 33.3351397,23.3438299 32.2819673,23.3405741 C31.2283294,23.3373184 30.2533767,23.8954439 29.7235314,24.8051883 C29.1941517,25.7149328 29.1904269,26.8376952 29.7142195,27.7506955 L29.7142195,27.7506955 C30.2380122,28.6636957 31.2092401,29.2278675 32.262878,29.2315883 L32.262878,29.2315883 C33.2629727,29.2348441 34.1876413,28.727415 34.7323856,27.8981336 L31.2204143,33.9733292 C31.114259,34.1565804 31.114259,34.3826212 31.2199487,34.5663375 L33.6848003,38.8494853 C33.9129411,39.2457544 34.4851555,39.2471497 34.714693,38.8513457 L44.4185914,22.1429299 C44.6485945,21.747591 44.3631858,21.2517896 43.9055074,21.2508594" id="Fill-7" fill="#7FCDEE"></path>
                        <path d="M0.594516256,19.6743875 L5.57171007,19.6836896 C5.78448627,19.6841547 5.98143229,19.5706692 6.08805319,19.3864878 L9.61957939,13.2778047 C9.15538273,14.1652241 9.16795376,15.2293833 9.66939789,16.1037799 C10.1931905,17.0167801 11.164884,17.581417 12.2180563,17.5846728 C13.2716943,17.5879285 14.2466469,17.0298031 14.7764923,16.1200586 C15.305872,15.2103141 15.3095967,14.0875517 14.7858041,13.1745514 L14.7858041,13.1745514 C14.2620115,12.2615512 13.2907836,11.6973794 12.2371457,11.6936586 L12.2371457,11.6936586 C11.22448,11.6904028 10.2886372,12.2099246 9.7466864,13.0578102 L13.2768158,6.95191769 C13.3829711,6.7686665 13.3829711,6.54262569 13.2772814,6.35890939 L10.8152233,2.07622671 C10.5870825,1.67995763 10.0148682,1.67856232 9.78486506,2.07436629 L0.0814322917,18.782317 C-0.148570865,19.1776559 0.13683791,19.6734573 0.594516256,19.6743875" id="Fill-9" fill="#FF6666"></path>
                        <path d="M31.2203677,6.95210373 L34.7328046,13.0272993 C34.1880603,12.1980179 33.2629261,11.6905889 32.2628314,11.6938446 L32.2628314,11.6938446 C31.2091935,11.6971003 30.2379656,12.2617373 29.714173,13.1747375 L29.714173,13.1747375 C29.1903804,14.0877377 29.1941051,15.2105001 29.7234848,16.1202446 C30.2533302,17.029524 31.2282828,17.5881146 32.2819208,17.5848588 C33.3350931,17.581138 34.3067866,17.0165011 34.8305792,16.1035008 C35.3250395,15.241197 35.3431976,14.1937816 34.8980903,13.3138038 L38.4091304,19.3866738 C38.5157513,19.5708552 38.7122317,19.6838757 38.9254735,19.6838757 L43.9054609,19.6745736 C44.3631392,19.6736434 44.648548,19.1778419 44.4185448,18.7820379 L34.7146465,2.07362212 C34.4851089,1.67828325 33.9128946,1.67921346 33.6847538,2.07594764 L31.2199021,6.35909543 C31.1142124,6.54281173 31.1142124,6.76885254 31.2203677,6.95210373" id="Fill-11" fill="#8585FF"></path>
                        <path d="M13.2767227,33.9732827 L9.74705887,27.8673902 C10.288544,28.7152758 11.2248524,29.2347976 12.2370526,29.2315418 L12.2370526,29.2315418 C13.2906905,29.227821 14.2619184,28.6636492 14.785711,27.7506489 L14.785711,27.7506489 C15.3095036,26.8376487 15.3062445,25.7148863 14.7763991,24.8051418 C14.2465538,23.8953973 13.2716012,23.3372719 12.2179632,23.3405276 C11.1647909,23.3437833 10.1930974,23.9084203 9.66930477,24.8214205 C9.16786064,25.695817 9.15528961,26.7599763 9.61948627,27.6473957 L6.08796007,21.5387126 C5.98133917,21.3545312 5.78439315,21.2410457 5.57161695,21.2415108 L0.594423138,21.2508129 C0.136744792,21.2517431 -0.148663984,21.7475445 0.081339173,22.1428834 L9.78477194,38.8512992 C10.0147751,39.2466381 10.5869894,39.2457079 10.8151302,38.8489737 L13.2776539,34.566291 C13.382878,34.3825747 13.382878,34.1565339 13.2767227,33.9732827" id="Fill-13" fill="#FCC15B"></path>
                        <g id="Group-17" transform="translate(11.639836, 28.832529)">
                            <mask id="mask-6" fill="white">
                                <use xlink:href="#path-5"></use>
                            </mask>
                            <g id="Clip-16"></g>
                        </g>
                    </g>
                    <g id="Page-1" transform="translate(51.000000, 2.000000)" fill="#6D5CAE">
                        <path d="M9.42816228,4.30172776 L9.42816228,17.6410823 C9.42816228,17.8382997 9.2699693,17.9988548 9.07565351,17.9988548 L6.0481886,17.9988548 C5.85325,17.9988548 5.69505702,17.8382997 5.69505702,17.6410823 L5.69505702,4.30172776 L1.30987281,4.30172776 C1.11555702,4.30172776 0.957364035,4.14117258 0.957364035,3.94395518 L0.957364035,1.38139331 C0.957364035,1.18354381 1.11555702,1.02298863 1.30987281,1.02298863 L13.8133465,1.02298863 C14.0082851,1.02298863 14.1658553,1.18354381 14.1658553,1.38139331 L14.1658553,3.94395518 C14.1658553,4.14117258 14.0082851,4.30172776 13.8133465,4.30172776 L9.42816228,4.30172776 Z" id="Fill-31"></path>
                        <path d="M30.3894798,1.38126689 L30.3894798,4.04054114 C30.3894798,4.23839064 30.2312868,4.39831371 30.0369711,4.39831371 L22.0619272,4.39831371 L22.0619272,7.89639398 L29.1986728,7.89639398 C29.3942342,7.89639398 29.5524272,8.05631706 29.5524272,8.25416656 L29.5524272,10.7680562 C29.5524272,10.9652736 29.3942342,11.1258288 29.1986728,11.1258288 L22.0619272,11.1258288 L22.0619272,14.647297 L30.2991728,14.647297 C30.4941114,14.647297 30.6523044,14.8078522 30.6523044,15.0057017 L30.6523044,17.6409559 C30.6523044,17.8381732 30.4941114,17.9987284 30.2991728,17.9987284 L18.6825763,17.9987284 C18.4870149,17.9987284 18.3300675,17.8381732 18.3300675,17.6409559 L18.3300675,1.38126689 C18.3300675,1.1840495 18.4870149,1.02349431 18.6825763,1.02349431 L30.0369711,1.02349431 C30.2312868,1.02349431 30.3894798,1.1840495 30.3894798,1.38126689" id="Fill-33"></path>
                        <path d="M47.238714,17.7827375 L45.7751175,14.3320652 L38.7648018,14.3320652 L37.3005825,17.7827375 C37.2445298,17.9142157 37.1168544,17.9989181 36.9761,17.9989181 L33.7730035,17.9989181 C33.5201439,17.9989181 33.3488719,17.7359615 33.4491439,17.4982893 L40.3710211,1.23860033 C40.4264509,1.10838629 40.5541263,1.02305184 40.6948807,1.02305184 L43.8444158,1.02305184 C43.9845474,1.02305184 44.1122228,1.10838629 44.1682754,1.23860033 L51.0901526,17.4982893 C51.1904246,17.7359615 51.0191526,17.9989181 50.7656702,17.9989181 L47.5631965,17.9989181 C47.4218193,17.9989181 47.2947667,17.9142157 47.238714,17.7827375 L47.238714,17.7827375 Z M42.2811702,6.07485117 L40.1760825,11.0040217 L44.363214,11.0040217 L42.2811702,6.07485117 Z" id="Fill-35"></path>
                        <path d="M69.6318026,7.31346488 L65.1096009,16.5908997 L62.8849342,16.5908997 L58.3857763,7.31346488 L58.3857763,17.6401973 C58.3857763,17.8386789 58.2275833,17.9992341 58.0326447,17.9992341 L55.0058026,17.9992341 C54.8114868,17.9992341 54.6526711,17.8386789 54.6526711,17.6401973 L54.6526711,1.38114047 C54.6526711,1.18392308 54.8114868,1.02336789 55.0058026,1.02336789 L59.4781798,1.02336789 C59.6151974,1.02336789 59.739136,1.10364548 59.797057,1.22943478 L64.0091009,10.3494749 L68.2448114,1.22880268 C68.3033553,1.10364548 68.4266711,1.02336789 68.5636886,1.02336789 L73.0123991,1.02336789 C73.2067149,1.02336789 73.3649079,1.18392308 73.3649079,1.38114047 L73.3649079,17.6401973 C73.3649079,17.8386789 73.2067149,17.9992341 73.0123991,17.9992341 L69.9843114,17.9992341 C69.7899956,17.9992341 69.6318026,17.8386789 69.6318026,17.6401973 L69.6318026,7.31346488 Z" id="Fill-37"></path>
                        <path d="M82.8287096,4.41095585 C82.4699728,4.71057458 82.2906044,5.10753779 82.2906044,5.60184548 C82.2906044,6.09488896 82.5085868,6.48805953 82.9482886,6.77819666 C83.3867447,7.07086221 84.3994289,7.41409632 85.9863412,7.81105953 C87.5744991,8.20802274 88.8064114,8.80283545 89.6839465,9.59549766 C90.5608588,10.3894241 90.9999377,11.5474441 90.9999377,13.0689258 C90.9999377,14.5910395 90.437543,15.8249124 89.3133763,16.7730729 C88.1885868,17.7199692 86.7081746,18.1934174 84.8740079,18.1934174 C82.3310868,18.1934174 80.0304377,17.275598 77.9726833,15.4380629 C77.8306833,15.3110094 77.8144904,15.0891398 77.9346921,14.9393304 L79.7177886,12.7200027 C79.84235,12.5645043 80.0684289,12.5474375 80.2203939,12.6763873 C81.9169202,14.1201197 83.4919991,14.841986 84.9456307,14.841986 C85.631964,14.841986 86.1694465,14.6921766 86.5611921,14.3925579 C86.9523149,14.0929391 87.1484991,13.6883906 87.1484991,13.1776482 C87.1484991,12.6681699 86.9404816,12.2636214 86.5263149,11.9640027 C86.1102798,11.6650161 85.2887974,11.3609726 84.0612447,11.0531365 C82.1149728,10.5847452 80.6906132,9.97223344 79.7894114,9.21939398 C78.8888325,8.46655452 78.4372974,7.28514649 78.4372974,5.67390569 C78.4372974,4.06266488 79.0077886,2.81994247 80.1487711,1.94637057 C81.2885079,1.07153445 82.7128675,0.634748495 84.4206044,0.634748495 C85.5366746,0.634748495 86.6533675,0.828805351 87.7700605,1.21755117 C88.7734026,1.56647425 89.6609026,2.04687559 90.4319377,2.65749097 C90.5789202,2.77316656 90.6063237,2.98997926 90.5004465,3.14484548 L89.0032184,5.33825686 C88.8904904,5.5038689 88.6681482,5.53673846 88.507464,5.42169498 C87.1466307,4.44825017 85.7440693,3.96215987 84.2997798,3.96215987 C83.6782184,3.96215987 83.1874465,4.11133712 82.8287096,4.41095585" id="Fill-39"></path>
                        <path d="M12.565864,25.1328147 L13.3319167,25.1328147 C13.5436711,25.1328147 13.7161886,25.3066441 13.7161886,25.5221926 L13.7161886,33.9620856 C13.7161886,34.1776341 13.5436711,34.3514635 13.3319167,34.3514635 L12.2413816,34.3514635 C12.1218026,34.3514635 12.0096974,34.2958381 11.9380746,34.2010221 L6.90703947,27.6252127 L6.90703947,33.9620856 C6.90703947,34.1776341 6.73514474,34.3514635 6.52401316,34.3514635 L5.75796053,34.3514635 C5.54558333,34.3514635 5.3743114,34.1776341 5.3743114,33.9620856 L5.3743114,25.5221926 C5.3743114,25.3066441 5.54558333,25.1328147 5.75796053,25.1328147 L6.71957456,25.1328147 C6.83728509,25.1328147 6.94939035,25.1890722 7.02225877,25.2832562 L12.1822149,32.0177244 L12.1822149,25.5221926 C12.1822149,25.3066441 12.3547325,25.1328147 12.565864,25.1328147" id="Fill-41"></path>
                        <path d="M24.7160816,25.5223191 L24.7160816,26.2075231 C24.7160816,26.4224395 24.5448096,26.5962689 24.3324325,26.5962689 L19.8700202,26.5962689 L19.8700202,29.0368341 L23.8391693,29.0368341 C24.0509237,29.0368341 24.2228184,29.2106635 24.2228184,29.4268441 L24.2228184,30.0317706 C24.2228184,30.2473191 24.0509237,30.4211485 23.8391693,30.4211485 L19.8700202,30.4211485 L19.8700202,32.8876301 L24.488757,32.8876301 C24.7005114,32.8876301 24.8724061,33.0620916 24.8724061,33.2776401 L24.8724061,33.962212 C24.8724061,34.1771284 24.7005114,34.35159 24.488757,34.35159 L18.7196956,34.35159 C18.5073184,34.35159 18.3360465,34.1771284 18.3360465,33.962212 L18.3360465,25.5223191 C18.3360465,25.3074027 18.5073184,25.1329411 18.7196956,25.1329411 L24.3324325,25.1329411 C24.5448096,25.1329411 24.7160816,25.3074027 24.7160816,25.5223191" id="Fill-43"></path>
                        <path d="M33.1975921,26.5575207 L33.1975921,34.3514003 L31.6636184,34.3514003 L31.6636184,26.5575207 L29.2925921,26.5575207 C29.0820833,26.5575207 28.908943,26.3836913 28.908943,26.1681428 L28.908943,25.5221294 C28.908943,25.307213 29.0820833,25.1327515 29.2925921,25.1327515 L35.5686184,25.1327515 C35.7803728,25.1327515 35.9522675,25.307213 35.9522675,25.5221294 L35.9522675,26.1681428 C35.9522675,26.3836913 35.7803728,26.5575207 35.5686184,26.5575207 L33.1975921,26.5575207 Z" id="Fill-45"></path>
                        <path d="M44.1137175,30.4347388 L45.6414632,25.4082237 C45.6906649,25.244508 45.8401386,25.1326251 46.0082965,25.1326251 L47.5597088,25.1326251 C47.7278667,25.1326251 47.8767175,25.244508 47.9265421,25.4088559 L49.4418316,30.4347388 L51.1589105,25.3949495 C51.2118491,25.238187 51.357586,25.1326251 51.5213842,25.1326251 L52.903393,25.1326251 C53.1674632,25.1326251 53.3524368,25.39811 53.2652439,25.6509528 L50.3629632,34.0908458 C50.3087789,34.2469763 50.1636649,34.3512739 50.0004895,34.3512739 L49.0475947,34.3512739 C48.8800596,34.3512739 48.7318316,34.2412873 48.6813842,34.0794679 L46.7774632,27.9423408 L44.8866211,34.0782037 C44.8361737,34.2406552 44.6879456,34.3512739 44.5204105,34.3512739 L43.5675158,34.3512739 C43.4043404,34.3512739 43.2592263,34.2469763 43.2056649,34.0908458 L40.3027614,25.6509528 C40.2155684,25.39811 40.4011649,25.1326251 40.6652351,25.1326251 L42.0472439,25.1326251 C42.2104193,25.1326251 42.3561561,25.238187 42.4097175,25.3962137 L44.1137175,30.4347388 Z" id="Fill-47"></path>
                        <path d="M65.7769386,33.0786528 C64.8589211,33.9882548 63.7285263,34.444004 62.3851316,34.444004 C61.0423596,34.444004 59.9119649,33.9882548 58.9939474,33.0786528 C58.0759298,32.1690508 57.6156754,31.0375793 57.6156754,29.683606 C57.6156754,28.3283686 58.0759298,27.196897 58.9939474,26.287295 C59.9119649,25.3770609 61.0423596,24.9225759 62.3851316,24.9225759 C63.7285263,24.9225759 64.8589211,25.3770609 65.7769386,26.287295 C66.6949561,27.196897 67.1552105,28.3283686 67.1552105,29.683606 C67.1552105,31.0375793 66.6949561,32.1690508 65.7769386,33.0786528 M65.0887368,29.6899271 C65.0887368,28.868188 64.8290263,28.1665492 64.3089825,27.586907 C63.7895614,27.0060007 63.1499386,26.7158635 62.3919825,26.7158635 C61.6334035,26.7158635 60.9950263,27.0060007 60.4756053,27.586907 C59.9555614,28.1665492 59.6952281,28.868188 59.6952281,29.6899271 C59.6952281,30.5116662 59.9555614,31.2114087 60.4756053,31.7866261 C60.9950263,32.3624756 61.6334035,32.6500843 62.3919825,32.6500843 C63.1499386,32.6500843 63.7895614,32.3624756 64.3089825,31.7866261 C64.8290263,31.2114087 65.0887368,30.5116662 65.0887368,29.6899271" id="Fill-49"></path>
                        <path d="M78.8510281,28.1927816 C78.8510281,29.6700157 78.2749316,30.6232331 77.1227386,31.0543301 L78.9936509,33.7369923 C79.1748877,33.9955241 78.9924053,34.3514003 78.6816246,34.3514003 L77.1289667,34.3514003 C77.0037825,34.3514003 76.8854491,34.2894538 76.8138263,34.1845241 L74.9136421,31.4108385 L73.5110807,31.4108385 L73.5110807,33.9620224 C73.5110807,34.1775709 73.339186,34.3514003 73.1268088,34.3514003 L71.867493,34.3514003 C71.6551158,34.3514003 71.4838439,34.1775709 71.4838439,33.9620224 L71.4838439,25.1327515 L74.9267211,25.1327515 C76.3392474,25.1327515 77.3469491,25.3754806 77.9485807,25.8590425 C78.5502123,26.3419722 78.8510281,27.1207281 78.8510281,28.1927816 M76.4083789,29.287591 C76.6593702,29.0587682 76.7851772,28.6959388 76.7851772,28.1991027 C76.7851772,27.7035308 76.6556333,27.3628251 76.3959228,27.1776177 C76.1355895,26.9936746 75.6803175,26.9007548 75.0319754,26.9007548 L73.5110807,26.9007548 L73.5110807,29.630193 L74.9927386,29.630193 C75.6853,29.630193 76.1567649,29.5157816 76.4083789,29.287591" id="Fill-51"></path>
                        <path d="M83.7781789,25.1328147 L85.0381175,25.1328147 C85.2498719,25.1328147 85.4223895,25.3066441 85.4223895,25.5221926 L85.4223895,28.9178716 L88.738214,25.2592361 C88.8110825,25.1789585 88.9132228,25.1328147 89.0209684,25.1328147 L90.4976439,25.1328147 C90.8302228,25.1328147 91.0052316,25.5323064 90.7828895,25.7832528 L87.7467053,29.2080087 C88.0593544,29.6485873 88.6354509,30.4671659 89.4756175,31.6675371 C90.0641702,32.5082395 90.5480912,33.1991324 90.9273807,33.7389518 C91.1092404,33.9968515 90.9255123,34.3514635 90.613486,34.3514635 L89.1885035,34.3514635 C89.0664333,34.3514635 88.9530825,34.2926776 88.8795912,34.194701 L86.3316877,30.7117913 L85.4223895,31.7408615 L85.4223895,33.9620856 C85.4223895,34.1776341 85.2498719,34.3514635 85.0381175,34.3514635 L83.7781789,34.3514635 C83.5670474,34.3514635 83.3945298,34.1776341 83.3945298,33.9620856 L83.3945298,25.5221926 C83.3945298,25.3066441 83.5670474,25.1328147 83.7781789,25.1328147" id="Fill-53"></path>
                    </g>
                </g>
                <text id="®" font-family="ArialMT, Arial" font-size="10" font-weight="normal" letter-spacing="0.222222224" fill="#6D5CAE">
                    <tspan x="146.204807" y="9">®</tspan>
                </text>
            </g>
        </g>
    </g>
</svg>